<svg id="Слой_1" data-name="Слой 1" xmlns="http://www.w3.org/2000/svg" viewBox="0 0 841.89 595.28"><defs><style>.cls-1{fill:#82388c;}</style></defs><polygon class="cls-1" points="480.97 248.43 480.97 280.77 497.08 280.77 497.08 299.27 480.88 299.27 480.88 331.64 497.08 331.64 497.08 350.72 481.08 350.72 481.08 401.59 497.08 401.59 497.08 437.23 480.97 437.23 480.97 493.38 427.42 493.38 427.42 202.61 464.57 202.61 475.81 176.21 497.08 176.21 497.08 248.43 480.97 248.43"/><polygon class="cls-1" points="566.74 202.61 566.74 493.38 513.19 493.38 513.19 437.23 497.08 437.23 497.08 401.59 513.33 401.59 513.33 350.72 497.08 350.72 497.08 331.64 513.11 331.64 513.11 299.27 497.08 299.27 497.08 280.77 513.19 280.77 513.19 248.43 497.08 248.43 497.08 176.21 518.35 176.21 529.59 202.61 566.74 202.61"/><polygon class="cls-1" points="192.64 165.17 192.64 194.12 201.08 194.12 201.08 226.17 184.2 226.17 184.2 284.05 201.08 284.05 201.08 316.13 184.2 316.13 184.2 373.99 201.08 373.99 201.08 430.88 180.66 430.88 180.66 493.87 131.79 493.87 131.79 186.96 179.63 131.95 179.63 101.9 201.08 101.9 201.08 165.17 192.64 165.17"/><polygon class="cls-1" points="270.38 186.96 270.38 493.86 221.5 493.86 221.5 430.87 201.09 430.87 201.09 373.99 217.94 373.99 217.94 316.13 201.09 316.13 201.09 284.05 217.94 284.05 217.94 226.16 201.09 226.16 201.09 194.11 209.5 194.11 209.5 165.17 201.09 165.17 201.09 101.89 222.53 101.89 222.53 131.95 270.38 186.96"/><polygon class="cls-1" points="634.2 164.68 634.2 193.63 642.64 193.63 642.64 225.68 625.76 225.68 625.76 283.56 642.64 283.56 642.64 315.64 625.76 315.64 625.76 373.5 642.64 373.5 642.64 430.39 622.2 430.39 622.2 493.38 573.35 493.38 573.35 186.47 621.2 131.47 621.2 101.41 642.64 101.41 642.64 164.68 634.2 164.68"/><polygon class="cls-1" points="711.93 186.47 711.93 493.38 663.06 493.38 663.06 430.39 642.64 430.39 642.64 373.5 659.5 373.5 659.5 315.64 642.64 315.64 642.64 283.56 659.5 283.56 659.5 225.68 642.64 225.68 642.64 193.63 651.06 193.63 651.06 164.68 642.64 164.68 642.64 101.41 664.09 101.41 664.09 131.47 711.93 186.47"/><path class="cls-1" d="M277,179.49V493.73H420.64V179.49Zm18.59,70.41h23.39v38.89H295.54Zm0,67h23.39V362.5H295.54Zm25.24,136.7H293.66v-63h27.12ZM337.21,249.9h23.38v38.89H337.21Zm-.09,67H360.5V362.5H337.12Zm25.63,136.7H335.64v-63h27.11ZM378.21,249.9h23.38v38.89H378.21Zm23.9,67V362.5H378.72V316.85ZM404,453.55H376.87v-63H404Z"/><polygon class="cls-1" points="319.93 184.08 348.82 139.95 377.71 184.08 319.93 184.08"/><path class="cls-1" d="M96,493.62S94,438,107.9,433.71c17.34-5.4,24.59,6.56,25.35,60.16Z"/><path class="cls-1" d="M709.65,493.13s-2-55.59,11.56-59.91c16.92-5.39,24,6.56,24.74,60.16Z"/><rect class="cls-1" x="183.74" y="101.9" width="38.31" height="63.27"/><rect class="cls-1" x="192.64" y="194.12" width="25.3" height="32.05"/><rect class="cls-1" x="184.2" y="284.05" width="33.74" height="32.08"/><rect class="cls-1" x="184.2" y="373.99" width="37.31" height="56.88"/><rect class="cls-1" x="475.81" y="176.2" width="37.38" height="72.23"/><rect class="cls-1" x="480.97" y="280.77" width="32.14" height="18.51"/><rect class="cls-1" x="480.88" y="331.64" width="32.45" height="19.08"/><rect class="cls-1" x="481.08" y="401.59" width="32.11" height="35.64"/><rect class="cls-1" x="621.2" y="101.41" width="29.86" height="63.27"/><rect class="cls-1" x="634.2" y="193.63" width="25.29" height="32.05"/><rect class="cls-1" x="625.76" y="283.56" width="33.73" height="32.08"/><rect class="cls-1" x="625.76" y="373.5" width="37.3" height="56.89"/></svg>