<svg id="Слой_1" data-name="Слой 1" xmlns="http://www.w3.org/2000/svg" viewBox="0 0 841.89 595.28"><defs><style>.cls-1{fill:#82388c;}</style></defs><polygon class="cls-1" points="420.21 151.54 346.89 151.54 346.89 176.96 187.53 176.96 197.31 195.54 197.31 211.18 163.09 211.18 185.09 233.18 185.09 270.82 420.21 270.82 420.21 151.54"/><polygon class="cls-1" points="420.21 151.54 494.93 151.54 494.93 176.96 654.29 176.96 644.51 195.54 644.51 211.18 678.73 211.18 656.73 233.18 656.73 270.82 420.21 270.82 420.21 151.54"/><rect class="cls-1" x="185.08" y="245.12" width="40.08" height="248.04"/><rect class="cls-1" x="265.25" y="245.12" width="40.08" height="248.04"/><rect class="cls-1" x="345.42" y="245.12" width="40.08" height="248.04"/><rect class="cls-1" x="456.38" y="245.12" width="40.08" height="248.04"/><rect class="cls-1" x="536.55" y="245.12" width="40.08" height="248.04"/><rect class="cls-1" x="616.72" y="245.12" width="40.08" height="248.04"/><rect class="cls-1" x="412.3" y="118.79" width="15.83" height="52.45"/><rect class="cls-1" x="373.77" y="126.61" width="15.15" height="52.45"/><rect class="cls-1" x="450.97" y="126.61" width="15.15" height="52.45"/><rect class="cls-1" x="423.11" y="101.86" width="11.73" height="28.19" transform="translate(158.52 -236.64) rotate(37.38)"/><rect class="cls-1" x="405.76" y="101.86" width="11.73" height="28.19" transform="translate(809.1 -41.83) rotate(142.62)"/><rect class="cls-1" x="359.6" y="457.21" width="11.73" height="62.01" transform="translate(-122.75 853.68) rotate(-90)"/><rect class="cls-1" x="470.56" y="457.21" width="11.73" height="62.01" transform="translate(-11.79 964.64) rotate(-90)"/><rect class="cls-1" x="550.73" y="456.29" width="11.73" height="62.01" transform="translate(69.3 1043.89) rotate(-90)"/><rect class="cls-1" x="630.9" y="456.29" width="11.73" height="62.01" transform="translate(149.47 1124.06) rotate(-90)"/><rect class="cls-1" x="279.43" y="457.21" width="11.73" height="62.01" transform="translate(-202.92 773.51) rotate(-90)"/><rect class="cls-1" x="199.26" y="457.21" width="11.73" height="62.01" transform="translate(-283.09 693.34) rotate(-90)"/><polygon class="cls-1" points="174.12 334.83 174.12 494.08 94.34 494.08 94.34 320.29 174.12 334.83"/><polygon class="cls-1" points="667.77 333.9 667.77 493.16 747.54 493.16 747.54 319.36 667.77 333.9"/><rect class="cls-1" x="396.97" y="151.54" width="59.42" height="119.27"/></svg>