<svg id="Слой_1" data-name="Слой 1" xmlns="http://www.w3.org/2000/svg" viewBox="0 0 541.78 497.86"><defs><style>.cls-1{fill:#82368c;}.cls-2{fill:#1d1d1b;stroke:#1d1d1b;stroke-miterlimit:10;}</style></defs><path class="cls-1" d="M547.34,332.51A240.82,240.82,0,0,0,368.3,412l61.32,50.56-.9,1.1-2.46,31.11A283,283,0,0,1,658.57,373.65q12.78,0,25.26,1.13A240.28,240.28,0,0,0,547.34,332.51Z" transform="translate(-176.01 -263.4)"/><path class="cls-1" d="M398.72,543.83l5.66-71.55-51-42.08A241.45,241.45,0,0,0,395,761.27a284.24,284.24,0,0,1,3.74-217.44Z" transform="translate(-176.01 -263.4)"/><polygon class="cls-2" points="179.12 140.16 99.49 72.71 120.95 48.11 61.06 24.55 1.18 1 33.8 55.8 66.42 110.6 86.18 87.96 165.81 155.41 179.12 140.16"/><polygon class="cls-2" points="237.5 291.09 383.06 204.07 334.96 281.29 429.89 241.99 333.7 440.78 442.55 381.29 538.75 459.77 448.88 342.99 383.06 386.35 472.93 204.07 379.26 241.99 429.89 160.88 265.04 241.99 237.5 291.09"/></svg>