<svg id="Слой_1" data-name="Слой 1" xmlns="http://www.w3.org/2000/svg" viewBox="0 0 841.89 595.28"><defs><style>.cls-1{fill:#82388c;}</style></defs><path class="cls-1" d="M166.61,495.27s-9.83-54,24.2-65,42.36,38.13,42.36,38.13,1.68-28.6,25.42-33S290.65,462,290.65,462s52.18-56.64,82.43-154.16,37.3-173,37.3-173h11.11s-4.29,184.32-77.15,360.53Z"/><path class="cls-1" d="M676.37,495.27s9.83-54-24.2-65-42.36,38.13-42.36,38.13-1.69-28.6-25.42-33S552.33,462,552.33,462s-52.18-56.64-82.44-154.16-37.3-173-37.3-173h-11.1s4.29,184.32,77.14,360.53Z"/><path class="cls-1" d="M344.34,495.27s28-64.3,77.15-63.56v-59.4H320.9v123Z"/><path class="cls-1" d="M498.63,495.27s-28-64.3-77.14-63.56v-59.4H522.08v123Z"/><polygon class="cls-1" points="371.19 267.45 421.49 267.45 421.49 297.51 377.72 297.51 382 282.48 371.19 267.45"/><polygon class="cls-1" points="471.78 267.45 421.49 267.45 421.49 297.51 465.26 297.51 460.98 282.48 471.78 267.45"/><rect class="cls-1" x="415.44" y="99.76" width="12.1" height="46.18"/><path class="cls-1" d="M93.7,495.27s-.43-53.68,3-70.65c2.65-13,17.23-41.45,46.39-31.87,32.72,10.76,23.49,102.52,23.49,102.52"/><path class="cls-1" d="M674.1,495.52s-.44-53.69,3-70.65c2.65-13,17.23-41.45,46.39-31.87C756.23,403.75,747,495.52,747,495.52"/><rect class="cls-1" x="347.78" y="372.31" width="174.3" height="57.86"/><rect class="cls-1" x="384.69" y="267.45" width="73.94" height="30.06"/></svg>