<svg id="Слой_1" data-name="Слой 1" xmlns="http://www.w3.org/2000/svg" viewBox="0 0 841.89 595.28"><defs><style>.cls-1{fill:#82388c;}.cls-2{fill:none;}</style></defs><path class="cls-1" d="M584.74,160.35l-.06-.12v.12H521.51V176a16.93,16.93,0,0,1,0,33.85V353.06H688.45v-.79ZM542.13,292s-3.67,12.77-8.9,0V257.2c5.23-12.77,8.9,0,8.9,0Zm31.7,0s-3.67,12.77-8.9,0V257.2c5.23-12.77,8.9,0,8.9,0Z"/><path class="cls-1" d="M521.52,359.61H688.46v44.95H603.65l0-13.65s-.76-15.23-13.84-14.44S576,389.89,576,389.89v14.67H558l0-13.65s-.77-15.23-13.85-14.44-13.84,13.42-13.84,13.42v14.67h-8.84Z"/><polygon class="cls-1" points="360.39 341.38 388.73 341.38 388.73 411.11 354.6 411.11 354.6 352.26 360.39 341.38"/><polygon class="cls-1" points="521.52 149.21 521.52 153.79 460.12 153.79 460.49 153.08 468.23 152.6 515.07 149.6 521.52 149.21"/><path class="cls-1" d="M456.61,160.35v0L378.69,307l16.58,26.95v19.13H521.51V209.82a16.93,16.93,0,1,1,0-33.85V160.35ZM478.73,292s-3.67,12.77-8.9,0V257.2c5.23-12.77,8.9,0,8.9,0Zm31.7-34.78V292s-3.67,12.77-8.9,0V257.2C506.76,244.43,510.43,257.2,510.43,257.2Zm-135.3,56.5-11.27,21.14h24.26Z"/><path class="cls-1" d="M395.27,359.61v44.95h43.79V389.9s.77-12.6,13.85-13.42,13.84,14.44,13.84,14.44l0,13.64h18V389.9s.77-12.6,13.85-13.42,13.84,14.44,13.84,14.44l0,13.64h9.16V359.61Z"/><polygon class="cls-1" points="439.07 411.11 466.73 411.11 466.7 428.97 439.07 428.97 439.07 411.11"/><path class="cls-1" d="M512.36,411.11l0,12.46a17.56,17.56,0,0,0-6,5.4H484.7V411.11Z"/><path class="cls-1" d="M558,411.11,558,429H537a16,16,0,0,0-6.61-6.27V411.11Z"/><polygon class="cls-1" points="603.65 411.11 603.62 428.97 575.99 428.97 575.99 411.11 603.65 411.11"/><path class="cls-1" d="M96.61,341.39V493.64H132V441.43h34.08v52.21l28.28,0V441.43h34.07v52.19h14.3V341.39ZM209.51,154,96.92,334.84h97.64V289.43h33.68v45.41h14.5V154Zm27.69,75.15H219.68V204.36s.48-8,8.79-8.5,8.76,9.13,8.76,9.13Z"/><path class="cls-1" d="M375.13,313.7v0l-13.79-22.4-1.64-2.63L275.82,154H242.59V334.84h14.33V289.43H290.6v45.41h97.52Zm-109.4-84.59H248.24V204.36s.48-8,8.76-8.5,8.79,9.13,8.79,9.13ZM242.59,341.39V493.62h14.16V441.43h34v52.19l28.31,0V441.43h34v52.21h35.57V341.39Z"/><rect class="cls-1" x="387.51" y="411.11" width="1.21" height="82.53"/><path class="cls-1" d="M745.28,388.59V493.64H675.86V441.43H641.79v52.21H608.25V441.43h-34v52.21H540.59l.08-52.64a28.63,28.63,0,0,0-3.7-12,16,16,0,0,0-6.61-6.27,16.92,16.92,0,0,0-8.84-1.61,21.43,21.43,0,0,0-9.19,2.48,17.56,17.56,0,0,0-6,5.4,22.89,22.89,0,0,0-3.93,10.68v54h-34V441.43H434.38v52.21h-39.1V411.11H720.59V388.59Z"/><polygon class="cls-1" points="242.75 147.4 202.97 147.4 236.93 122.2 242.6 117.99 242.69 132.71 242.69 134.04 242.75 147.4"/><polygon class="cls-1" points="282.38 147.4 242.6 147.4 242.69 134.04 242.69 132.71 242.75 117.99 248.57 122.31 282.38 147.4"/><polygon class="cls-1" points="584.69 153.79 456.68 153.79 468.23 148.47 515.07 126.92 521.43 124.01 526.71 126.49 573.08 148.33 584.69 153.79"/><rect class="cls-1" x="515.07" y="101.63" width="11.64" height="52.15"/><rect class="cls-1" x="515.07" y="160.34" width="11.64" height="2.74"/><polygon class="cls-1" points="468.23 134.24 468.23 153.79 456.68 153.79 456.62 153.81 456.62 134.24 468.23 134.24"/><rect class="cls-1" x="456.62" y="160.34" width="11.61" height="35.34"/><rect class="cls-1" x="236.93" y="101.63" width="11.64" height="45.77"/><rect class="cls-1" x="573.08" y="134.24" width="11.61" height="19.55"/><rect class="cls-1" x="573.08" y="160.34" width="11.61" height="35.34"/><polygon class="cls-1" points="456.62 153.79 456.68 153.79 456.62 153.81 456.62 153.79"/><polygon class="cls-1" points="584.75 160.34 584.69 160.34 584.69 160.23 584.75 160.34"/><line class="cls-2" x1="375.14" y1="313.67" x2="361.35" y2="291.26"/><rect class="cls-1" x="237.23" y="153.96" width="11.02" height="180.87"/><rect class="cls-1" x="235.48" y="341.39" width="14.74" height="152.23"/><path class="cls-1" d="M501.24,160.35h40.37l-8.24,20.48s-3-5.37-11.86-4.86-12.18,5.17-12.18,5.17Z"/><path class="cls-1" d="M513.27,207.67s1,2.35,8.24,2.15,9.07-2.64,9.07-2.64l1.47,145.88H513.27Z"/><rect class="cls-1" x="514.22" y="359.61" width="14.27" height="44.94"/></svg>