<svg id="Слой_1" data-name="Слой 1" xmlns="http://www.w3.org/2000/svg" viewBox="0 0 841.89 595.28"><defs><style>.cls-1{fill:#82388c;}</style></defs><path class="cls-1" d="M474.86,366.87l.63.09,0,.05,30.4,4.11S508.11,432,525.71,473H467.54L457.3,385.15l-.51-4.42-1.91-16.45-.8-6.76-7.56-65,1.43-1.4,5.41-5.36,3.43-3.39v41.8l6.61,25.13,2.57,9.72,1.82,6.9Z"/><path class="cls-1" d="M748.61,473s0-27.6-4.39-47.16-21.5-28.83-38.61-15.14c-16.2,12.94-16.63,57.2-16.63,61.9V275.28c-80.66-25.46-183.32-18.16-183.32-18.16v25.29H463.4v41.23L473,360l40.89,5.36-.48,6.48v.11c.34,7.21,3.33,62.79,19.78,101.11h50.62V424.3s1-15.82,17.39-16.82,17.37,18.08,17.37,18.08L618.52,473Zm-132.2-92.87-1.82-.06V334s.91-15.32,16.77-16.29,16.79,17.48,16.79,17.48l-.09,46v.2Zm-29.91-.88-32.11-1.37V330.12s.92-15.46,16.94-16.43,16.94,17.65,16.94,17.65l-.09,48Z"/><path class="cls-1" d="M525.71,473H497.85L479,383.78,478,378.65l0-.06-.05-.23L475.52,367l30.4,4.11S508.11,432,525.71,473Z"/><polygon class="cls-1" points="463.4 349.34 463.4 385.15 456.79 385.15 456.79 324.21 463.4 349.34"/><polygon class="cls-1" points="479.31 383.7 479.03 383.78 472.9 385.38 467.76 365.96 465.94 359.06 463.4 349.54 456.79 324.56 447.95 291.17 443.73 275.28 450.57 275.28 453.36 285.8 456.79 298.69 456.79 324.21 463.4 349.34 465.97 359.06 467.79 365.96 474.87 366.87 474.87 366.93 477.89 378.36 477.94 378.59 477.97 378.65 479.31 383.7"/><polygon class="cls-1" points="406.94 351.36 406.94 358 380.02 354.5 380.02 347.82 406.94 351.36"/><polygon class="cls-1" points="467.79 365.96 467.76 365.96 463.4 365.39 456.79 364.53 454.88 364.28 441.64 362.54 441.64 355.89 454.08 357.52 456.79 357.86 463.4 358.72 465.94 359.06 465.97 359.06 467.79 365.96"/><path class="cls-1" d="M505.92,371.12,475.52,367l-.66-.08-7.07-.94v0l-1.82-6.9-2.57-9.72-6.61-25.13V275.28H427.44l-10.26-44V195.15H394.45L377.6,124s-36.67-9.55-123.93,15.4-93.84,49.13-93.84,49.13V445.69a68.21,68.21,0,0,0-2.22-13c-1.94-7.33-10-13.17-18.31-8.78-7.61,4-7.24,16.23-7.13,18.28-.2-2.34-1.62-19.19-4.36-27.8-2.94-9.3-20.79-17.63-29.09,2.42S94.1,473,94.1,473h78.62V432.66s.8-13.06,14.31-13.86,14.32,14.88,14.32,14.88L201.29,473h27V429.58s.86-14.06,15.43-14.95,15.4,16.06,15.4,16.06L259.06,473h26.35V427s.88-14.88,16.34-15.82,16.31,17,16.31,17L318,473h28.6V426s.94-15.72,17.23-16.69S381,427.18,381,427.18L381,473h30.8V424s1-15.86,17.39-16.86,17.37,18.11,17.37,18.11L446.44,473h79.27C508.11,432,505.92,371.12,505.92,371.12Zm-323.19-169c5.53,0,10,5.68,10,12.69s-4.48,12.66-10,12.66-10-5.67-10-12.66S177.22,202.11,182.73,202.11Zm18.56,193.33-28.57,3.28V359.34s.8-13.06,14.31-13.88,14.32,14.91,14.32,14.91Zm0-85.2-28.57,5.56V276.88s.8-13.06,14.31-13.86,14.32,14.89,14.32,14.89Zm23.16-94.61c-5.59,0-10.16-5.76-10.16-12.89s4.57-12.86,10.16-12.86,10.18,5.76,10.18,12.86S230.06,215.63,224.45,215.63Zm34.64,173.91-30.77,3V350.33s.86-14,15.43-14.91,15.4,16,15.4,16Zm0-90.19-30.77,5.7V262.71s.86-14,15.43-14.92,15.4,16,15.4,16Zm7.53-95c-5.87,0-10.64-6.05-10.64-13.49s4.77-13.46,10.64-13.46,10.64,6,10.64,13.46S272.49,204.31,266.62,204.31Zm113.43,36.53-.05,40.8L345.63,286V239.61s.95-15.71,17.2-16.68S380.05,240.84,380.05,240.84ZM318.69,384.69l-32.59,2.49V342.41s.88-14.92,16.33-15.86,16.31,17,16.31,17Zm0-95-32.57,5,0-44.37s.88-14.88,16.33-15.82,16.31,17,16.31,17ZM310.5,195.9c-6,0-11-6.22-11-13.92s4.93-13.91,11-13.91,11,6.24,11,13.91S316.58,195.9,310.5,195.9Zm44.06-34.56c6.1,0,11,6.24,11,13.94s-4.93,14-11,14-11-6.24-11-14S348.49,161.34,354.56,161.34ZM380,380.42l-34.37,2.31v-47.2s.95-15.71,17.2-16.68,17.22,17.91,17.22,17.91l0,11.06v6.68Zm61.62-3.57-34.68,1.88V331.2s.94-15.85,17.4-16.85,17.36,18.08,17.36,18.08l-.06,23.46v6.65Z"/><polyline class="cls-1" points="588.18 379.31 588.18 379.33 586.5 379.28"/><path class="cls-1" d="M654.62,381.33l-6.56-.2.09-46s-.91-18.42-16.79-17.48S614.59,334,614.59,334V380.1l-26.41-.8.09-48s-.91-18.62-16.94-17.65-16.94,16.43-16.94,16.43v47.79l32.11,1.37-44.65-1.37h-2.2s-1-49.76-1-50.84,26.8-27.32,26.8-27.32,85.43,5.87,89.22,7.3S654.62,381.33,654.62,381.33Z"/></svg>